<svg width="22" height="24" viewBox="0 0 22 24" fill="none" xmlns="http://www.w3.org/2000/svg">
<path fill-rule="evenodd" clip-rule="evenodd" d="M14.3221 13.3003L16.4746 15.4364L19.6125 5.16489L13.3379 6.96737L12.9113 8.10028L14.0622 7.7774C14.6004 7.62917 15.0965 7.77772 15.3742 8.14596C15.5974 8.4413 15.6525 8.83303 15.53 9.24841L14.3221 13.3003ZM16.6022 17.0331H16.6017C16.2759 17.0331 15.9504 16.8891 15.6851 16.6279L12.7349 13.7003L14.0688 9.22622L10.6204 10.1939L12.267 5.82183L19.6192 3.70943C20.1371 3.55828 20.6542 3.69923 20.9326 4.07071C21.1539 4.36637 21.2064 4.75858 21.0801 5.17461L17.7373 16.1162C17.5633 16.6819 17.1286 17.0331 16.6022 17.0331Z" fill="#FEFEFE"/>
<path fill-rule="evenodd" clip-rule="evenodd" d="M1.63104 12.7069L10.4311 21.435L12.7352 13.7003L11.3276 12.3025L10.8198 13.6488C10.621 14.18 10.1783 14.511 9.66447 14.511C9.32852 14.511 8.99632 14.3649 8.72962 14.0997L6.06994 11.4643L1.63104 12.7069ZM10.5635 23.04C10.2377 23.04 9.9119 22.8946 9.64699 22.6317L0.410711 13.4704C0.065614 13.1294 -0.0714121 12.7001 0.035563 12.2938C0.142701 11.8872 0.473589 11.5792 0.94428 11.4486L6.48135 9.8987L9.57546 12.9647L10.7759 9.78027L14.3216 13.3002L11.695 22.1173C11.526 22.6863 11.0924 23.04 10.5635 23.04Z" fill="#FEFEFE"/>
<mask id="mask0" mask-type="alpha" maskUnits="userSpaceOnUse" x="0" y="0" width="16" height="12">
<path d="M0.719757 0H15.5028V11.4902H0.719757V0Z" fill="white"/>
</mask>
<g mask="url(#mask0)">
<path fill-rule="evenodd" clip-rule="evenodd" d="M2.28646 5.76369L6.48168 9.92449L8.36902 9.39635L7.94128 8.97206C7.59602 8.62812 7.45981 8.19864 7.56532 7.79233C7.67066 7.38651 7.9991 7.07659 8.46521 6.9418L12.2668 5.84777L13.862 1.6178L2.28646 5.76369ZM6.06995 11.4903L1.13293 6.59365C0.794362 6.25619 0.654886 5.82898 0.747979 5.41975C0.841562 5.0102 1.15301 4.68409 1.60296 4.52467L13.9832 0.0900861C14.536 -0.107237 15.0534 0.0280379 15.3234 0.413288C15.4433 0.58469 15.6134 0.955359 15.4036 1.51347L13.3377 6.99332L9.15165 8.19783L11.063 10.093L6.06995 11.4903Z" fill="#FEFEFE"/>
</g>
<path fill-rule="evenodd" clip-rule="evenodd" d="M0.908171 12.9769C0.564054 12.637 0.66564 12.2508 1.13323 12.1205L14.2538 8.44867C14.7209 8.31972 14.991 8.5901 14.8548 9.05166L11.0205 21.9191C10.883 22.3805 10.4889 22.4802 10.1454 22.1383L0.908171 12.9769Z" fill="#232F64"/>
<path fill-rule="evenodd" clip-rule="evenodd" d="M8.4379 8.45208C8.09476 8.10992 8.19537 7.72078 8.66148 7.58632L19.815 4.37974C20.2805 4.24349 20.5465 4.51177 20.406 4.973L17.0635 15.9136C16.9226 16.3737 16.526 16.4723 16.1813 16.1328L8.4379 8.45208Z" fill="#65BB47"/>
<path fill-rule="evenodd" clip-rule="evenodd" d="M1.62979 6.07375C1.28747 5.73241 1.38039 5.31848 1.83949 5.15583L14.2221 0.720758C14.6773 0.558104 14.9128 0.793175 14.7441 1.24371L10.1608 13.4044C9.99132 13.8567 9.57012 13.9469 9.22747 13.6062L1.62979 6.07375Z" fill="#2AAAE1"/>
</svg>
