<svg width="247" height="118" viewBox="0 0 247 118" fill="none" xmlns="http://www.w3.org/2000/svg">
<rect opacity="0.13" x="10" width="45" height="58" rx="4" fill="#8F9BD3"/>
<path d="M32.5 0.5V57.5" stroke="white"/>
<path d="M10.5 29H55" stroke="white"/>
<rect opacity="0.13" x="63" width="45" height="58" rx="4" fill="#8F9BD3"/>
<path d="M85.5 0.5V57.5" stroke="white"/>
<path d="M63.5 29H108" stroke="white"/>
<rect x="42" y="61.0593" width="118" height="9.72688" rx="4.86344" fill="white" stroke="#232F64" stroke-width="1.74815"/>
<path d="M49 75L59.3056 105.169C61.2569 110.882 62.2326 113.738 64.5132 115.369C66.7939 117 69.8121 117 75.8486 117H103.579C109.693 117 112.75 117 115.045 115.336C117.34 113.673 118.291 110.768 120.193 104.957L130 75" stroke="#232F64" stroke-width="1.74815"/>
<path d="M63 79V61.4963C63 59.5653 64.5653 58 66.4963 58H83.4255H90.4468H92.2312C92.4625 58 92.5537 58.2996 92.3617 58.4286L91.6111 59.1006C90.8702 59.7638 90.4468 60.7111 90.4468 61.7055V61.8571V79H63Z" fill="white" stroke="#232F64" stroke-width="1.74815"/>
<path d="M63 75H90" stroke="#232F64" stroke-width="1.74815"/>
<path d="M91.2074 58C93.3926 58 94.2667 59.3111 94.2667 61.4963" stroke="#232F64" stroke-width="1.74815"/>
<rect x="75" y="100" width="54" height="15" rx="7.5" fill="#FBBC05" stroke="#F2994A" stroke-width="2"/>
<rect x="94" y="101" width="34" height="13" rx="6.5" fill="#FFA800"/>
<rect x="110" y="107" width="18" height="1" rx="0.5" fill="#232F64"/>
<rect x="87" y="86" width="54" height="12" rx="6" fill="#45C0F5" stroke="#2AAAE1" stroke-width="2"/>
<rect x="106" y="86.647" width="34" height="10.7059" rx="5.35294" fill="#1999D0"/>
<rect x="122" y="91.5881" width="18" height="0.823529" rx="0.411765" fill="#232F64"/>
<path d="M117 5.11765C117 2.29125 119.291 0 122.118 0H218.5C220.855 0 222.765 1.90937 222.765 4.26471V116H117V5.11765Z" fill="#5261A2"/>
<path d="M117 5.11764C117 2.29125 119.291 0 122.118 0H206.559V116H117V5.11764Z" fill="#8F9BD3"/>
<path d="M117 5.11765C117 2.29125 119.291 0 122.118 0H210.824C217.418 0 222.765 5.34625 222.765 11.9412V23.8824H117V5.11765Z" fill="#8F9BD3"/>
<path d="M117 22.1765H221.059V23.8824H117V22.1765Z" fill="#232F64"/>
<path d="M206.559 0H218.5C220.855 0 222.765 1.90937 222.765 4.26471V23.8824H206.559V0Z" fill="#232F64"/>
<g filter="url(#filter0_d)">
<circle cx="162.206" cy="68.2352" r="30.7059" fill="#232F64"/>
</g>
<circle cx="162.206" cy="68.2352" r="23.318" fill="white"/>
<mask id="mask0" mask-type="alpha" maskUnits="userSpaceOnUse" x="138" y="44" width="48" height="48">
<circle cx="162.206" cy="68.2352" r="23.318" fill="white"/>
</mask>
<g mask="url(#mask0)">
<path d="M188.997 70.1235C188.548 82.9798 175.897 92.9727 160.74 92.4434C145.583 91.9141 134.769 88.2553 135.218 75.399C135.46 68.4678 145.599 74.838 153.52 73.2691C166.395 70.7188 162.881 62.2888 174.565 62.6968C186.249 63.1048 189.472 56.51 188.997 70.1235Z" fill="#2AAAE1"/>
<path d="M189.536 74.2805C189.087 87.1367 176.436 97.1297 161.279 96.6004C146.122 96.0711 135.308 92.4122 135.757 79.556C135.999 72.6248 146.138 78.9949 154.059 77.426C166.935 74.8758 163.421 66.4458 175.105 66.8538C186.789 67.2618 190.012 60.667 189.536 74.2805Z" fill="#41C6FF"/>
</g>
<circle opacity="0.39" cx="171.902" cy="72.8525" r="2.07784" fill="white"/>
<circle opacity="0.39" cx="165.438" cy="77.0084" r="1.15436" fill="white"/>
<circle opacity="0.39" cx="181.368" cy="69.8512" r="0.923485" fill="white"/>
<circle opacity="0.39" cx="147.892" cy="80.7023" r="1.6161" fill="white"/>
<rect opacity="0.4" x="209.971" y="42.647" width="10.2353" height="4.26471" rx="2.13235" fill="white"/>
<rect opacity="0.4" x="209.971" y="35.8235" width="10.2353" height="4.26471" rx="2.13235" fill="white"/>
<rect opacity="0.4" x="209.971" y="49.4707" width="10.2353" height="4.26471" rx="2.13235" fill="white"/>
<rect opacity="0.4" x="209.971" y="56.2942" width="10.2353" height="4.26471" rx="2.13235" fill="white"/>
<rect x="138" y="8" width="24" height="8" rx="0.852941" fill="#232F64"/>
<rect x="171.735" y="8.82349" width="6" height="6" rx="3" stroke="#232F64" stroke-width="2"/>
<path d="M171 8H171.237C172.577 8 173.754 8.88793 174.122 10.1758L174.5 11.5" stroke="#8F9BD3" stroke-width="1.5"/>
<rect x="182.735" y="8.82349" width="6" height="6" rx="3" stroke="#232F64" stroke-width="2"/>
<path d="M182 8H182.237C183.577 8 184.754 8.88793 185.122 10.1758L185.5 11.5" stroke="#8F9BD3" stroke-width="1.5"/>
<rect x="209.971" y="41.7942" width="10.2353" height="4.26471" rx="2.13235" fill="#232F64"/>
<rect x="209.971" y="34.9707" width="10.2353" height="4.26471" rx="2.13235" fill="#232F64"/>
<rect x="209.971" y="48.6177" width="10.2353" height="4.26471" rx="2.13235" fill="#232F64"/>
<rect x="209.971" y="55.4412" width="10.2353" height="4.26471" rx="2.13235" fill="#232F64"/>
<rect y="116" width="247" height="2" fill="#232F64"/>
<defs>
<filter id="filter0_d" x="124.5" y="31.5293" width="75.4118" height="75.4118" filterUnits="userSpaceOnUse" color-interpolation-filters="sRGB">
<feFlood flood-opacity="0" result="BackgroundImageFix"/>
<feColorMatrix in="SourceAlpha" type="matrix" values="0 0 0 0 0 0 0 0 0 0 0 0 0 0 0 0 0 0 127 0"/>
<feOffset dy="1"/>
<feGaussianBlur stdDeviation="3.5"/>
<feColorMatrix type="matrix" values="0 0 0 0 0 0 0 0 0 0 0 0 0 0 0 0 0 0 0.1 0"/>
<feBlend mode="normal" in2="BackgroundImageFix" result="effect1_dropShadow"/>
<feBlend mode="normal" in="SourceGraphic" in2="effect1_dropShadow" result="shape"/>
</filter>
</defs>
</svg>
