<svg xmlns="http://www.w3.org/2000/svg" width="20" height="20" fill="none" viewBox="0 0 20 20">
    <g stroke="#5F5F5F" stroke-linecap="round" stroke-linejoin="round" stroke-width="1.5" clip-path="url(#clip0)">
        <path d="M10.64 6.537c.18.237.414.427.684.554.27.127.566.187.863.175.95 0 1.72-.578 1.72-1.29 0-.711-.77-1.288-1.72-1.288-.949 0-1.718-.577-1.718-1.29 0-.712.77-1.289 1.718-1.289.298-.012.594.048.864.175s.505.317.685.554M12.188 7.266v.859M12.188 1.25v.86M10.625 12.5v5.625c0 .331-.132.65-.366.884-.235.234-.552.366-.884.366h-7.5c-.332 0-.65-.132-.884-.366-.234-.235-.366-.553-.366-.884V4.375c0-.332.132-.65.366-.884.235-.234.552-.366.884-.366M.625 16.25h10"/>
        <path d="M15 .625h3.125c.331 0 .65.132.884.366.234.235.366.552.366.884V8.75c0 .332-.132.65-.366.884-.235.234-.553.366-.884.366h-12.5c-.332 0-.65-.132-.884-.366-.234-.235-.366-.552-.366-.884V1.875c0-.332.132-.65.366-.884.235-.234.552-.366.884-.366h3.75"/>
    </g>
    <defs>
        <clipPath id="clip0">
            <path fill="#fff" d="M0 0H20V20H0z"/>
        </clipPath>
    </defs>
</svg>
