<svg xmlns="http://www.w3.org/2000/svg" width="20" height="20" fill="none" viewBox="0 0 20 20">
    <g stroke="#5F5F5F" stroke-linecap="round" stroke-linejoin="round" stroke-width="1.5" clip-path="url(#clip0)">
        <path d="M3.826 18.785c-.352.351-.829.549-1.326.549-.497 0-.974-.198-1.326-.55-.351-.351-.549-.828-.549-1.325s.198-.974.55-1.326l5.303-5.3 2.651 2.652-5.303 5.3zM15.316 4.643l-7.513 7.513M17.083 4.643c-.234.235-.552.366-.884.366-.331 0-.65-.132-.884-.366-.234-.235-.366-.553-.365-.884 0-.332.131-.65.366-.884l2.21-2.208 1.767 1.766-2.21 2.21zM8.742 6.933L6.833 5.021c.222-.566.275-1.184.15-1.779-.123-.595-.418-1.14-.847-1.57-.503-.5-1.162-.811-1.867-.882.3.478.428 1.043.364 1.604-.064.56-.315 1.083-.714 1.482-.399.399-.92.65-1.481.715-.56.064-1.126-.064-1.605-.363.05.476.21.934.466 1.339.256.404.603.743 1.012.991.41.248.871.398 1.348.438.477.04.957-.031 1.402-.208l1.313 1.313M11.864 13.592l1.48 1.478c-.263.668-.287 1.407-.069 2.09.218.685.665 1.273 1.266 1.666.6.393 1.318.568 2.032.494.714-.074 1.381-.391 1.89-.899.507-.508.824-1.174.898-1.889.074-.714-.1-1.431-.494-2.032-.393-.6-.981-1.048-1.666-1.266-.684-.218-1.422-.194-2.09.069l-2.093-2.093"/>
        <path d="M16.03 15.988c.043-.044.099-.073.16-.085.06-.013.123-.006.18.017.057.024.106.064.14.115.034.052.053.112.053.174 0 .062-.018.122-.053.174-.034.051-.083.091-.14.115-.057.023-.12.03-.18.017-.061-.012-.117-.041-.16-.085-.06-.059-.092-.138-.092-.221 0-.083.033-.162.091-.22"/>
    </g>
    <defs>
        <clipPath id="clip0">
            <path fill="#fff" d="M0 0H20V20H0z"/>
        </clipPath>
    </defs>
</svg>
