<svg xmlns="http://www.w3.org/2000/svg" width="20" height="20" fill="none" viewBox="0 0 20 20">
    <g stroke="#5F5F5F" stroke-linecap="round" stroke-linejoin="round" stroke-width="1.5" clip-path="url(#clip0)">
        <path d="M10.625 13.29v4.833c0 .332.132.65.366.884.235.235.553.366.884.366h5c.331 0 .65-.131.884-.366.234-.234.366-.552.366-.884V13.29"/>
        <path d="M9.375 14.383l3.765-3.294c.342-.3.78-.464 1.235-.464.454 0 .893.165 1.235.464l3.765 3.294M15.625 19.375h-2.5v-2.5c0-.331.132-.65.366-.884.235-.234.553-.366.884-.366.332 0 .65.132.884.366.234.235.366.553.366.884v2.5zM3.125 11.875h3.75M6.875 11.875v-6.25M9.375 8.125v-1.25M4.375 11.875v-3.75M6.25 16.875H1.875c-.332 0-.65-.132-.884-.366-.234-.235-.366-.553-.366-.884V1.875c0-.332.132-.65.366-.884.235-.234.552-.366.884-.366h8.857c.332 0 .65.132.884.366l2.393 2.393c.234.235.366.552.366.884V7.5"/>
    </g>
    <defs>
        <clipPath id="clip0">
            <path fill="#fff" d="M0 0H20V20H0z"/>
        </clipPath>
    </defs>
</svg>
